<?xml version="1.0" encoding="UTF-8"?>
<svg id="Layer_2" data-name="Layer 2" xmlns="http://www.w3.org/2000/svg" viewBox="0 0 12.5 11.15">
  <defs>
    <style>
      .cls-1 {
        fill: #fff;
        stroke-width: 0px;
      }
    </style>
  </defs>
  <g id="hero">
    <g id="bar_buttons">
      <g id="Donate">
        <path class="cls-1" d="M12.5,3.55v.54c-.03.15-.05.27-.07.38-.02.12-.04.25-.06.37-.15.59-.43,1.15-.87,1.73-.59.81-1.32,1.48-2.03,2.09-.8.7-1.62,1.4-2.44,2.11l-.13.11c-.21.18-.43.27-.65.27s-.42-.08-.61-.25l-.6-.51c-.9-.79-1.84-1.6-2.74-2.41-.61-.54-1.13-1.13-1.53-1.75C-.04,4.99-.21,3.69.27,2.38c.27-.73.68-1.29,1.21-1.68.41-.31.9-.52,1.44-.63,1.01-.19,1.92.02,2.69.63.23.17.44.39.65.64.21-.26.42-.47.64-.64.38-.3.8-.5,1.26-.61.97-.23,2.04,0,2.85.61.31.22.57.5.79.82.38.56.61,1.19.67,1.89l.03.14Z"/>
      </g>
    </g>
  </g>
</svg>