<?xml version="1.0" encoding="UTF-8"?>
<svg id="Layer_2" data-name="Layer 2" xmlns="http://www.w3.org/2000/svg" viewBox="0 0 12.49 11.15">
  <defs>
    <style>
      .cls-1 {
        fill: #fff;
        stroke-width: 0px;
      }
    </style>
  </defs>
  <g id="hero">
    <g id="bar_buttons">
      <g id="Donate">
        <g id="Heart">
          <path class="cls-1" d="M12.48,3.48s-.01-.05-.01-.08c-.07-.7-.3-1.33-.68-1.89C10.99.34,9.53-.24,8.15.09c-.73.17-1.35.58-1.9,1.24C5.34.24,4.22-.18,2.92.07,1.65.32.73,1.11.27,2.38c-.48,1.31-.31,2.6.49,3.85.41.62.91,1.19,1.53,1.75.95.85,1.92,1.69,2.88,2.52l.46.4c.19.17.4.25.61.25s.45-.09.66-.27l.31-.27c.75-.65,1.51-1.3,2.26-1.95.7-.61,1.43-1.29,2.03-2.09.44-.58.72-1.15.86-1.73.04-.16.06-.33.09-.5l.04-.21v-.65ZM10.8,5.64c-.51.77-1.17,1.39-1.74,1.9-.67.59-1.34,1.17-2.02,1.75l-.79.68-.11-.09c-.17-.15-.34-.29-.5-.44l-.71-.61c-.63-.55-1.27-1.1-1.89-1.66-.56-.5-.99-1-1.34-1.53-.61-.92-.74-1.88-.4-2.86.31-.88.91-1.43,1.78-1.62.18-.04.36-.06.53-.06.6,0,1.14.25,1.6.74.13.14.25.3.37.46l.14.2c.14.18.32.29.54.28.2-.01.39-.11.52-.29.03-.04.06-.08.08-.12l.05-.07c.32-.47.65-.78,1.04-.96.73-.35,1.46-.32,2.18.1.71.42,1.11,1.08,1.23,2.01.09.76-.09,1.48-.56,2.19Z"/>
        </g>
      </g>
    </g>
  </g>
</svg>