<?xml version="1.0" encoding="UTF-8"?>
<svg id="Layer_2" data-name="Layer 2" xmlns="http://www.w3.org/2000/svg" xmlns:xlink="http://www.w3.org/1999/xlink" viewBox="0 0 130.35 35.23">
  <defs>
    <style>
      .cls-1 {
        fill: url(#radial-gradient-6);
      }

      .cls-1, .cls-2, .cls-3, .cls-4, .cls-5, .cls-6, .cls-7, .cls-8, .cls-9, .cls-10, .cls-11, .cls-12, .cls-13, .cls-14, .cls-15, .cls-16, .cls-17, .cls-18, .cls-19, .cls-20, .cls-21, .cls-22, .cls-23, .cls-24, .cls-25, .cls-26, .cls-27 {
        stroke-width: 0px;
      }

      .cls-1, .cls-2, .cls-3, .cls-8, .cls-13, .cls-14, .cls-20, .cls-23, .cls-24, .cls-26, .cls-27 {
        fill-rule: evenodd;
      }

      .cls-2 {
        fill: url(#linear-gradient-11);
      }

      .cls-3 {
        fill: url(#linear-gradient-10);
        opacity: .33;
      }

      .cls-3, .cls-6, .cls-28, .cls-7, .cls-8, .cls-9, .cls-10, .cls-12, .cls-13, .cls-14, .cls-15, .cls-17, .cls-18, .cls-19, .cls-21, .cls-23, .cls-25, .cls-26, .cls-27 {
        isolation: isolate;
      }

      .cls-4 {
        fill: url(#linear-gradient);
      }

      .cls-5, .cls-10 {
        fill: #000;
      }

      .cls-29 {
        stroke: url(#radial-gradient-9);
        stroke-miterlimit: 3.99;
        stroke-width: 1px;
      }

      .cls-29, .cls-11 {
        fill: none;
      }

      .cls-6 {
        fill: url(#linear-gradient-8);
      }

      .cls-6, .cls-18, .cls-25 {
        opacity: .29;
      }

      .cls-7 {
        fill: url(#linear-gradient-2);
        opacity: .51;
      }

      .cls-8 {
        fill: url(#radial-gradient-4);
        opacity: .51;
      }

      .cls-9 {
        fill: url(#linear-gradient-5);
      }

      .cls-9, .cls-12, .cls-21 {
        opacity: .62;
      }

      .cls-10 {
        opacity: .58;
      }

      .cls-12 {
        fill: url(#linear-gradient-9);
      }

      .cls-13 {
        fill: url(#radial-gradient-10);
        opacity: .48;
      }

      .cls-14 {
        fill: url(#radial-gradient-3);
        opacity: .45;
      }

      .cls-15 {
        fill: #fff;
        opacity: .59;
      }

      .cls-16 {
        fill: url(#linear-gradient-14);
      }

      .cls-17 {
        fill: url(#linear-gradient-13);
        opacity: .36;
      }

      .cls-18 {
        fill: url(#linear-gradient-4);
      }

      .cls-19 {
        fill: url(#linear-gradient-12);
        opacity: .25;
      }

      .cls-20 {
        fill: url(#radial-gradient-7);
      }

      .cls-21 {
        fill: url(#linear-gradient-7);
      }

      .cls-22 {
        fill: url(#linear-gradient-3);
      }

      .cls-23 {
        fill: url(#radial-gradient-2);
        opacity: .28;
      }

      .cls-30 {
        clip-path: url(#clippath);
      }

      .cls-24 {
        fill: url(#radial-gradient-5);
      }

      .cls-25 {
        fill: url(#linear-gradient-6);
      }

      .cls-26 {
        fill: url(#radial-gradient-8);
        opacity: .62;
      }

      .cls-27 {
        fill: url(#radial-gradient);
        opacity: .22;
      }

      .cls-31 {
        opacity: .78;
      }
    </style>
    <clipPath id="clippath">
      <path class="cls-11" d="M14.53,1.37L1.73,14.48c-4.85,4.85,3.14,4.44,6.03,6.27,1.34.87-4.29,1.99-3.14,3.14,1.12,1.15,6.74,2.21,7.86,3.32,1.12,1.15-2.27,2.36-1.15,3.51,1.09,1.15,3.7.06,4.16,2.67.34,1.93,4.79.96,6.77-.68,1.24-1.06-2.14-1.06-1.03-2.21,2.8-2.83,5.28-1.27,6.31-3.88.56-1.4-4.23-2.39-2.95-3.29,3.05-2.14,14.23-3.23,9.07-8.39L20.4,1.37c-1.65-1.55-4.35-1.55-5.87,0ZM11.45,21.47c.28,0,9.57,1.24,6,2.21-1.37.37-7.64-2.21-6-2.21ZM29.23,26.62c0,.65,5.06,1.03,4.79-.16-.4-1.99-4.23-1.83-4.79.16ZM7.63,30.07c1.15.99,2.89-.22,3.45-1.62-1.12-1.46-5.25.09-3.45,1.62ZM28.61,27.99c-1.43,1.3.25,2.67,1.65,1.77.37-.25-.03-1.46-1.65-1.77Z"/>
    </clipPath>
    <linearGradient id="linear-gradient" x1="31.52" y1="3931.52" x2="24.56" y2="3925.22" gradientTransform="translate(-2.27 3889.7) scale(.99 -.99)" gradientUnits="userSpaceOnUse">
      <stop offset="0" stop-color="#c0cdf9"/>
      <stop offset="1" stop-color="#07092d" stop-opacity=".29"/>
    </linearGradient>
    <linearGradient id="linear-gradient-2" x1="7.35" y1="3906.52" x2="15.22" y2="3898.65" gradientTransform="translate(1.21 3935.18) scale(1.01 -1.01)" gradientUnits="userSpaceOnUse">
      <stop offset="0" stop-color="#fff"/>
      <stop offset="1" stop-color="#fff" stop-opacity="0"/>
    </linearGradient>
    <linearGradient id="linear-gradient-3" x1="14.51" y1="3921.25" x2="23.95" y2="3911.81" gradientTransform="translate(-.6 3912.67) scale(1 -1)" xlink:href="#linear-gradient-2"/>
    <radialGradient id="radial-gradient" cx="125.75" cy="4957.26" fx="125.75" fy="4957.26" r="9.63" gradientTransform="translate(-92.57 2782.1) scale(.83 -.55)" gradientUnits="userSpaceOnUse">
      <stop offset="0" stop-color="#fff"/>
      <stop offset="1" stop-color="#fff" stop-opacity="0"/>
    </radialGradient>
    <radialGradient id="radial-gradient-2" cx="79.09" cy="4371.51" fx="79.09" fy="4371.51" r="9.63" gradientTransform="translate(-67.77 3126.34) scale(1.06 -.71)" xlink:href="#radial-gradient"/>
    <radialGradient id="radial-gradient-3" cx="291.71" cy="8933.19" fx="291.71" fy="8933.19" r="10.78" gradientTransform="translate(-125.19 2016.55) scale(.53 -.22)" xlink:href="#radial-gradient"/>
    <radialGradient id="radial-gradient-4" cx="293.99" cy="8926.08" fx="293.99" fy="8926.08" r="10.78" gradientTransform="translate(-125.19 2015.63) scale(.53 -.22)" xlink:href="#radial-gradient"/>
    <linearGradient id="linear-gradient-4" x1="298.74" y1="5117.81" x2="298.78" y2="5115.82" gradientTransform="translate(-125.85 2725.6) scale(.53 -.53)" xlink:href="#linear-gradient-2"/>
    <linearGradient id="linear-gradient-5" x1="219.08" y1="3611.15" x2="219.08" y2="3609.75" gradientTransform="translate(-123.85 4129.11) scale(.71 -1.14)" xlink:href="#linear-gradient-2"/>
    <radialGradient id="radial-gradient-5" cx="297.36" cy="21373.86" fx="297.36" fy="21373.86" r="4.44" gradientTransform="translate(-125.19 1693.18) scale(.53 -.08)" xlink:href="#radial-gradient"/>
    <linearGradient id="linear-gradient-6" x1="3608.27" y1="4679.72" x2="3608.31" y2="4677.74" gradientTransform="translate(411.3 2602.96) rotate(-26.88) scale(.23 -.53) skewX(-.03)" xlink:href="#linear-gradient-2"/>
    <linearGradient id="linear-gradient-7" x1="2677.35" y1="3407.27" x2="2677.35" y2="3405.87" gradientTransform="translate(1046.46 3853.71) rotate(-26.88) scale(.31 -1.14) skewX(-.05)" xlink:href="#linear-gradient-2"/>
    <radialGradient id="radial-gradient-6" cx="3606.9" cy="18408.74" fx="3606.9" fy="18408.74" r="4.44" gradientTransform="translate(-55.48 1682.01) rotate(-26.88) scale(.23 -.08)" xlink:href="#radial-gradient"/>
    <radialGradient id="radial-gradient-7" cx="253.82" cy="9217.61" fx="253.82" fy="9217.61" r="7.16" gradientTransform="translate(-125.19 2004.88) scale(.53 -.21)" gradientUnits="userSpaceOnUse">
      <stop offset="0" stop-color="#fff" stop-opacity=".33"/>
      <stop offset="1" stop-color="#fff" stop-opacity="0"/>
    </radialGradient>
    <linearGradient id="linear-gradient-8" x1="1423.33" y1="5966.15" x2="1423.37" y2="5964.16" gradientTransform="translate(84.71 2363.94) rotate(-12.38) scale(.48 -.39) skewX(-5.03)" xlink:href="#linear-gradient-2"/>
    <linearGradient id="linear-gradient-9" x1="1054.3" y1="4005.03" x2="1054.3" y2="4003.63" gradientTransform="translate(414.76 3340.3) rotate(-12.38) scale(.64 -.83) skewX(-8.02)" xlink:href="#linear-gradient-2"/>
    <radialGradient id="radial-gradient-8" cx="781.38" cy="7969.05" fx="781.38" fy="7969.05" r="3.3" gradientTransform="translate(36.89 2030.13) rotate(-15.48) scale(.65 -.24)" xlink:href="#radial-gradient"/>
    <radialGradient id="radial-gradient-9" cx="-60.88" cy="3332.33" fx="-60.88" fy="3332.33" r="17.83" gradientTransform="translate(123.51 5630.85) scale(1.72 -1.69)" xlink:href="#radial-gradient"/>
    <linearGradient id="linear-gradient-10" x1="287.57" y1="5353.36" x2="305.83" y2="5348.54" gradientTransform="translate(-129.22 2629.62) scale(.49 -.49)" xlink:href="#linear-gradient-2"/>
    <linearGradient id="linear-gradient-11" x1="42.61" y1="4098.53" x2="41.48" y2="4095.94" gradientTransform="translate(-22.99 3635.87) scale(.88 -.88)" gradientUnits="userSpaceOnUse">
      <stop offset="0" stop-color="#eeeeec"/>
      <stop offset="1" stop-color="#eeeeec" stop-opacity="0"/>
    </linearGradient>
    <radialGradient id="radial-gradient-10" cx="216.64" cy="4069.48" fx="216.64" fy="4069.48" r="7.07" gradientTransform="translate(-119.02 3428.07) scale(.66 -.84)" xlink:href="#radial-gradient"/>
    <linearGradient id="linear-gradient-12" x1="275.58" y1="5329.65" x2="278.42" y2="5327.39" gradientTransform="translate(-128.33 2638.79) scale(.49 -.49)" xlink:href="#linear-gradient-2"/>
    <linearGradient id="linear-gradient-13" x1="319.03" y1="5349.43" x2="310.5" y2="5372.41" gradientTransform="translate(-129.22 2629.62) scale(.49 -.49)" gradientUnits="userSpaceOnUse">
      <stop offset="0" stop-color="#729fcf"/>
      <stop offset="1" stop-color="#729fcf" stop-opacity="0"/>
    </linearGradient>
    <linearGradient id="linear-gradient-14" x1="49.03" y1="17.74" x2="130.35" y2="17.74" gradientTransform="matrix(1,0,0,1,0,0)" xlink:href="#linear-gradient"/>
  </defs>
  <g id="hero">
    <g id="bar_buttons">
      <g id="logo">
        <g id="g9139" class="cls-28">
          <g id="g6035" class="cls-31">
            <path id="path5987" class="cls-5" d="M14.5,1.52L1.58,14.76c-4.89,4.89,3.17,4.48,6.09,6.33,1.35.88-4.33,2.01-3.17,3.17,1.13,1.16,6.81,2.23,7.94,3.36,1.13,1.16-2.29,2.38-1.16,3.54,1.1,1.16,3.73.06,4.2,2.7.35,1.94,4.83.97,6.84-.69,1.25-1.07-2.16-1.07-1.04-2.23,2.82-2.85,5.33-1.29,6.37-3.92.56-1.41-4.27-2.41-2.98-3.32,3.07-2.16,14.37-3.26,9.16-8.47L20.43,1.52C18.77-.05,16.04-.05,14.5,1.52h0ZM29.34,27.02c0,.66,5.11,1.03,4.83-.16-.41-2.01-4.27-1.85-4.83.16ZM7.54,30.5c1.16,1,2.92-.22,3.48-1.63-1.13-1.47-5.3.09-3.48,1.63ZM28.71,28.4c-1.44,1.32.25,2.7,1.66,1.79.38-.25-.03-1.47-1.66-1.79Z"/>
            <path id="path6021" class="cls-10" d="M14.5,1.83L1.58,15.06c-4.89,4.89,3.17,4.48,6.09,6.33,1.35.88-4.33,2.01-3.17,3.17,1.13,1.16,6.81,2.23,7.94,3.36,1.13,1.16-2.29,2.38-1.16,3.54,1.1,1.16,3.73.06,4.2,2.7.35,1.94,4.83.97,6.84-.69,1.25-1.07-2.16-1.07-1.04-2.23,2.82-2.85,5.33-1.29,6.37-3.92.56-1.41-4.27-2.41-2.98-3.32,3.07-2.16,14.37-3.26,9.16-8.47L20.43,1.83c-1.66-1.57-4.39-1.57-5.93,0h0ZM29.34,27.32c0,.66,5.11,1.03,4.83-.16-.41-2.01-4.27-1.85-4.83.16ZM7.54,30.8c1.16,1,2.92-.22,3.48-1.63-1.13-1.47-5.3.09-3.48,1.63ZM28.71,28.7c-1.44,1.32.25,2.7,1.66,1.79.38-.25-.03-1.47-1.66-1.79Z"/>
          </g>
          <path id="use7631" class="cls-5" d="M14.5,1.22L1.58,14.45c-4.89,4.89,3.17,4.48,6.09,6.33,1.35.88-4.33,2.01-3.17,3.17,1.13,1.16,6.81,2.23,7.94,3.36,1.13,1.16-2.29,2.38-1.16,3.54,1.1,1.16,3.73.06,4.2,2.7.35,1.94,4.83.97,6.84-.69,1.25-1.07-2.16-1.07-1.04-2.23,2.82-2.85,5.33-1.29,6.37-3.92.56-1.41-4.27-2.41-2.98-3.32,3.07-2.16,14.37-3.26,9.16-8.47L20.43,1.22c-1.66-1.57-4.39-1.57-5.93,0ZM29.34,26.71c0,.66,5.11,1.03,4.83-.16-.41-2.01-4.27-1.85-4.83.16ZM7.54,30.19c1.16,1,2.92-.22,3.48-1.63-1.13-1.47-5.3.09-3.48,1.63ZM28.71,28.09c-1.44,1.32.25,2.7,1.66,1.79.38-.25-.03-1.47-1.66-1.79Z"/>
          <path id="use7639" class="cls-11" d="M14.5,1.22L1.58,14.45c-4.89,4.89,3.17,4.48,6.09,6.33,1.35.88-4.33,2.01-3.17,3.17,1.13,1.16,6.81,2.23,7.94,3.36,1.13,1.16-2.29,2.38-1.16,3.54,1.1,1.16,3.73.06,4.2,2.7.35,1.94,4.83.97,6.84-.69,1.25-1.07-2.16-1.07-1.04-2.23,2.82-2.85,5.33-1.29,6.37-3.92.56-1.41-4.27-2.41-2.98-3.32,3.07-2.16,14.37-3.26,9.16-8.47L20.43,1.22c-1.66-1.57-4.39-1.57-5.93,0ZM29.34,26.71c0,.66,5.11,1.03,4.83-.16-.41-2.01-4.27-1.85-4.83.16ZM7.54,30.19c1.16,1,2.92-.22,3.48-1.63-1.13-1.47-5.3.09-3.48,1.63ZM28.71,28.09c-1.44,1.32.25,2.7,1.66,1.79.38-.25-.03-1.47-1.66-1.79Z"/>
          <g class="cls-30">
            <g id="use7641">
              <path id="outline1" class="cls-4" d="M14.53,1.37L1.73,14.48c-4.85,4.85,3.14,4.44,6.03,6.27,1.34.87-4.29,1.99-3.14,3.14,1.12,1.15,6.74,2.21,7.86,3.32,1.12,1.15-2.27,2.36-1.15,3.51,1.09,1.15,3.7.06,4.16,2.67.34,1.93,4.79.96,6.77-.68,1.24-1.06-2.14-1.06-1.03-2.21,2.8-2.83,5.28-1.27,6.31-3.88.56-1.4-4.23-2.39-2.95-3.29,3.05-2.14,14.23-3.23,9.07-8.39L20.4,1.37c-1.65-1.55-4.35-1.55-5.87,0ZM11.45,21.47c.28,0,9.57,1.24,6,2.21-1.37.37-7.64-2.21-6-2.21ZM29.23,26.62c0,.65,5.06,1.03,4.79-.16-.4-1.99-4.23-1.83-4.79.16ZM7.63,30.07c1.15.99,2.89-.22,3.45-1.62-1.12-1.46-5.25.09-3.45,1.62ZM28.61,27.99c-1.43,1.3.25,2.67,1.65,1.77.37-.25-.03-1.46-1.65-1.77Z"/>
            </g>
          </g>
          <path id="path7643" class="cls-7" d="M2.73,15.18c-3.51,3.48,2.66,2.5,7.41,4.37L19.95,2.3c-1.49-1.52-3.39-1.39-4.75,0L2.73,15.18Z"/>
          <path id="icecap-7" class="cls-22" d="M19.65,2.16l5.11,5.21c.47.47.47,1.44.19,1.72l-2.54-2.07-.5,3.04-2.1-1.13-3.42,2.16-1.13-4.55-1.82,3.95-4.55-.03c-.88,0-.75-.91.16-1.82,1.79-1.98,5.27-5.33,6.37-6.49,1.13-1.16,3.11-1.13,4.23,0Z"/>
          <path id="path8566" class="cls-27" d="M12.63,26.75s.55.85.5,1.25c-.11.78-1.8,1.17-1.42,1.87.37.69,1.7.3,2.81,1.02,1.11.72.81,2.18,1.62,2.54,1.57.72,5.71-1.24,5.5-1.19s-4.08.85-4.95.14c-.99-.8-1.28-1.37-2.01-1.84-.69-.45-1.65-.63-1.88-.99-.22-.37.45-.84.5-1.54.03-.42-.66-1.25-.66-1.25Z"/>
          <path id="path8718" class="cls-23" d="M12.63,26.75s.55.85.5,1.25c-.11.78-1.8,1.17-1.42,1.87.37.69,1.7.3,2.81,1.02,1.11.72.81,2.18,1.62,2.54,1.57.72,5.71-1.24,5.5-1.19-6.87.03-5.59-1.74-8.23-2.91-.38-.17-.16-.63-.11-1.33.03-.42-.66-1.25-.66-1.25Z"/>
          <path id="path8736" class="cls-14" d="M24.3,23.13c6.16-2.27,8.14-2.58,10.18-4.61-2.35,1.99-7.33,3.05-11.38,4.82l1.2-.21Z"/>
          <path id="path8746" class="cls-8" d="M24.3,22.84c10.15-3.6,8.44-3.58,10.18-4.61-3.23,1.24-9.26,1.37-11.38,4.82l1.2-.21Z"/>
          <path id="path8864" class="cls-18" d="M33.17,25.72c0,.22-.59.4-1.32.4s-1.32-.18-1.32-.4.59-.4,1.32-.4,1.32.18,1.32.4Z"/>
          <path id="path8874" class="cls-9" d="M33.62,26.19c0,.48-.79.87-1.78.87s-1.78-.39-1.78-.87.79-.87,1.78-.87,1.78.39,1.78.87Z"/>
          <path id="path8914" class="cls-24" d="M29.43,26.67c.63.58,4.11.88,4.68-.17-1.12.79-3.61.52-4.68.17Z"/>
          <path id="path8984" class="cls-25" d="M29.44,28.6c.13.25.04.55-.19.67s-.52,0-.65-.25-.04-.55.19-.67.52,0,.65.25Z"/>
          <path id="path8986" class="cls-21" d="M29.69,28.71c.19.38.07.82-.26.99s-.76,0-.95-.37-.07-.82.26-.99.76,0,.95.37Z"/>
          <path id="path8988" class="cls-1" d="M28.57,29.77c.5.39,2.4.44,1.68-.7.19.9-1.11.8-1.68.7Z"/>
          <path id="path8996" class="cls-20" d="M5.19,23.84c0-.1,6.45,1.97,7.56,3.07-.91-.89-5.51-2.93-6.21-2.95s-1.27-.08-1.35-.12Z"/>
          <g id="g9018">
            <path id="path9006" class="cls-6" d="M10.04,28.27c.05.16-.42.4-1.06.54s-1.2.13-1.25-.03.42-.4,1.06-.54,1.2-.13,1.25.03Z"/>
            <path id="path9008" class="cls-12" d="M10.55,28.51c.11.34-.49.76-1.36.95s-1.65.07-1.76-.26.49-.76,1.36-.95,1.65-.07,1.76.26Z"/>
          </g>
          <path id="path9038" class="cls-26" d="M7.26,29.32s.35.94,1.31.99c.97.05,2.08-1.16,2.17-1.6-.17.37-1.09,1.5-2.29,1.48-.68,0-1.18-.87-1.18-.87Z"/>
          <path id="_87235" data-name="87235" class="cls-29" d="M17.42.5c-.97,0-1.92.35-2.6,1.04L1.9,14.77c-1.18,1.18-1.46,1.95-1.39,2.39.04.22.14.41.37.61.23.2.57.39.99.57.83.35,1.95.63,3.05.93s2.17.62,2.99,1.14c.12.08.24.18.32.32s.11.33.08.49c-.07.32-.26.49-.46.64-.4.3-.95.56-1.5.82s-1.11.54-1.38.76c-.14.11-.19.21-.19.21,0,0-.04-.09.03-.02.17.18.71.48,1.4.75s1.53.55,2.38.82,1.71.55,2.44.83,1.32.55,1.72.94c.2.2.33.45.36.71.03.26-.04.49-.14.7-.19.4-.51.71-.79,1.01-.29.3-.54.58-.64.77-.05.1-.05.16-.05.2s.01.08.1.17c0,0,0,0,0,0,.37.4,1.19.45,2.11.67.46.11.94.27,1.35.63s.72.9.85,1.64c.06.31.22.46.62.59.4.12,1,.15,1.67.05,1.33-.19,2.9-.85,3.81-1.6.06-.05.04-.04.06-.06-.06-.04-.2-.14-.44-.25-.28-.14-.61-.27-.86-.59-.13-.16-.21-.41-.18-.66.04-.25.17-.45.35-.64,1.49-1.5,2.96-1.86,4.06-2.16.55-.15,1.01-.28,1.36-.5s.62-.52.85-1.11c.03-.06.02-.08,0-.16-.03-.07-.13-.19-.27-.32-.3-.26-.79-.53-1.27-.8s-.96-.52-1.3-.84c-.17-.16-.35-.36-.37-.67-.02-.31.18-.58.41-.74.86-.61,2.16-1.07,3.58-1.56,1.41-.49,2.94-1,4.18-1.58,1.24-.58,2.15-1.25,2.44-1.92.14-.34.17-.68.02-1.12-.15-.44-.5-.98-1.12-1.6L20.12,1.55s0,0,0,0c-.74-.69-1.72-1.04-2.69-1.04h0ZM31.83,25.59c-.83.03-1.59.41-1.91,1,.09.03.18.07.32.11.43.1,1.03.16,1.63.18.59.01,1.19-.04,1.55-.14.16-.04.24-.09.28-.12-.08-.34-.27-.58-.6-.76-.34-.19-.8-.28-1.27-.26ZM9.72,28.43c-.66-.05-1.48.22-1.88.54-.2.16-.29.31-.29.41,0,.1.02.23.29.46,0,0,0,0,0,0,.42.37.9.33,1.45.03.46-.25.86-.72,1.14-1.22-.18-.12-.4-.21-.71-.24ZM28.85,28.62c-.14.18-.22.34-.23.46-.01.16.03.28.16.4.23.22.73.31,1.24.04-.01-.06-.03-.15-.11-.26-.16-.23-.52-.48-1.07-.64Z"/>
          <path id="path5897" class="cls-3" d="M10.34,21.22c-.78.23-3.31,1.18-2.95,1.91.34.7,6.22.98,7.12,3.06.39.91-.9,1.59-.57,2.53.25.72,2.21,2.53,3.44,3.38.97.67,2.24-.54,1.73-1.54-.83-1.6,2.82-3.55,4.48-4.44.97-.52-1.99-3.06-1.99-3.06l-11.26-1.84Z"/>
          <path id="path5783" class="cls-2" d="M10.62,21.92c.7.51,2.08.2,2.91.58,1.99.9,4.44,1.9,3.99.13l-.51.42v-.8s-1.19.29-1.19.29c0,0-.91-.73-1.33-.97-.09-.05-.54.41-.54.41l-.08-.48c-.58-.06-1.16-.09-1.67-.09-1.22,0-2.04.2-1.59.53h0Z"/>
          <path id="path5803" class="cls-13" d="M23.7,23.55c-.27.99,3.31,2.34,3.04,3.02-.59,1.51-3.83.48-6.3,3.64-.35.45.5,2.07.38,1.88s-.99-1.53-.77-2.18c.7-2.06,7.51-2.83,6.26-3.81-.72-.57-3.29-2.13-2.62-2.55Z"/>
          <path id="path6041" class="cls-15" d="M31.76,25.59c0,.09-.18.16-.39.16s-.39-.07-.39-.16.18-.16.39-.16.39.07.39.16Z"/>
          <path id="path6043" class="cls-15" d="M29.14,28.6c0,.09-.11.16-.25.16s-.25-.07-.25-.16.11-.16.25-.16.25.07.25.16Z"/>
          <path id="path6045" class="cls-15" d="M9.28,28.45c0,.09-.2.16-.44.16s-.44-.07-.44-.16.2-.16.44-.16.44.07.44.16Z"/>
          <path id="path5049" class="cls-19" d="M9.03,21.29c-2.24,1.39-5.73,1.89-1.91,2.81-.45-1.01.98-.9,1.91-2.81Z"/>
          <path id="path10207" class="cls-17" d="M17,33.93s3.46-.33,4.26-1.32c.47-.58-1.86-1.27-1.36-1.84,1.89-2.15,3.48-2.06,5.68-2.96,2.19-.9,1.38-1.34.67-1.74-1.22-.68-3.92-1.4-3.02-3.01.9-1.62,8.78-3.87,8.78-3.87,2.39-.82,2.09-2.29.92-3.52l-7.05-7.01s.35,6.64-1.07,9.49c-1.76,3.52-11.11,7.45-7.2,7.89,1.38.15,2.04.62,2.6,1.68,1.16,2.18-3.22,6.2-3.22,6.2Z"/>
        </g>
        <g>
          <path class="cls-5" d="M49.03,23.92v-12.35h3.27v12.35h-3.27ZM54.8,23.92v-12.35h3.34l2.74,5.51c.22.42.42.86.61,1.34s.38.95.57,1.43h.08c-.08-.67-.16-1.43-.27-2.29-.1-.86-.15-1.66-.15-2.42v-3.57h3.12v12.35h-3.34l-2.74-5.51c-.2-.42-.4-.87-.6-1.35-.2-.48-.39-.96-.58-1.43h-.08c.08.7.16,1.47.27,2.31.1.84.15,1.64.15,2.4v3.57h-3.12ZM67.34,23.92v-12.35h3.27v4.6h.08l3.12-4.6h3.57l-3.69,5.02,4.41,7.33h-3.57l-2.74-4.75-1.18,1.67v3.08h-3.27ZM82.51,24.15c-.81,0-1.62-.14-2.44-.43-.82-.29-1.56-.74-2.23-1.36l1.71-2.13c.44.35.94.63,1.48.82.54.19,1.06.29,1.56.29s.85-.08,1.07-.23c.22-.15.33-.37.33-.65,0-.2-.07-.36-.2-.48-.13-.12-.32-.23-.57-.34-.25-.11-.55-.23-.9-.37l-1.54-.63c-.44-.19-.85-.44-1.24-.75-.38-.31-.68-.69-.91-1.14-.23-.45-.34-.97-.34-1.57,0-.71.2-1.35.59-1.93.39-.58.93-1.04,1.62-1.39.69-.35,1.49-.52,2.38-.52.75,0,1.48.13,2.19.39.72.26,1.35.65,1.91,1.17l-1.71,2.13c-.42-.29-.83-.51-1.23-.66-.41-.15-.79-.22-1.16-.22-.39,0-.71.07-.94.21-.23.14-.35.35-.35.63,0,.19.07.35.22.48.15.13.36.25.64.36.28.11.6.24.97.39l1.5.59c.52.2.96.46,1.31.77.35.31.63.68.82,1.11.19.43.29.93.29,1.5,0,.7-.19,1.35-.56,1.95-.37.6-.92,1.09-1.64,1.45-.72.37-1.6.55-2.62.55ZM94.52,24.15c-1.06,0-2.05-.23-2.95-.69-.91-.46-1.63-1.16-2.19-2.1-.55-.94-.83-2.11-.83-3.52,0-1.04.16-1.96.48-2.76.32-.8.77-1.49,1.33-2.04.56-.56,1.2-.98,1.92-1.26.72-.28,1.46-.43,2.23-.43.82,0,1.56.16,2.21.48.65.32,1.19.7,1.62,1.16l-1.71,1.98c-.3-.27-.62-.47-.94-.6-.32-.13-.69-.2-1.11-.2-.47,0-.91.15-1.32.44-.41.29-.74.7-1,1.24-.25.53-.38,1.17-.38,1.9,0,.77.12,1.43.36,1.97.24.54.58.95,1.01,1.23.43.28.92.42,1.48.42.44,0,.84-.09,1.2-.28.35-.18.65-.4.89-.64l1.63,1.94c-.54.61-1.15,1.06-1.81,1.35-.67.29-1.38.44-2.14.44ZM98.43,23.92l3.76-12.35h3.95l3.76,12.35h-3.46l-1.41-6c-.15-.6-.3-1.24-.46-1.94-.15-.7-.3-1.36-.46-1.98h-.08c-.13.62-.27,1.28-.42,1.98-.15.7-.3,1.34-.46,1.94l-1.41,6h-3.34ZM101.13,21.3v-2.53h6.04v2.53h-6.04ZM110.86,23.92v-12.35h4.52c.9,0,1.73.13,2.49.38.76.25,1.37.68,1.83,1.27.46.6.69,1.41.69,2.45s-.23,1.82-.69,2.46c-.46.64-1.07,1.11-1.82,1.42-.75.3-1.56.46-2.42.46h-1.33v3.91h-3.27ZM114.13,17.42h1.18c.65,0,1.12-.16,1.43-.47.31-.31.47-.74.47-1.28s-.17-.95-.51-1.18c-.34-.23-.83-.34-1.46-.34h-1.1v3.27ZM122.18,23.92v-12.35h7.98v2.74h-4.71v1.94h4.03v2.74h-4.03v2.2h4.9v2.74h-8.17Z"/>
          <path class="cls-16" d="M49.03,23.92v-12.35h3.27v12.35h-3.27ZM54.8,23.92v-12.35h3.34l2.74,5.51c.22.42.42.86.61,1.34s.38.95.57,1.43h.08c-.08-.67-.16-1.43-.27-2.29-.1-.86-.15-1.66-.15-2.42v-3.57h3.12v12.35h-3.34l-2.74-5.51c-.2-.42-.4-.87-.6-1.35-.2-.48-.39-.96-.58-1.43h-.08c.08.7.16,1.47.27,2.31.1.84.15,1.64.15,2.4v3.57h-3.12ZM67.34,23.92v-12.35h3.27v4.6h.08l3.12-4.6h3.57l-3.69,5.02,4.41,7.33h-3.57l-2.74-4.75-1.18,1.67v3.08h-3.27ZM82.51,24.15c-.81,0-1.62-.14-2.44-.43-.82-.29-1.56-.74-2.23-1.36l1.71-2.13c.44.35.94.63,1.48.82.54.19,1.06.29,1.56.29s.85-.08,1.07-.23c.22-.15.33-.37.33-.65,0-.2-.07-.36-.2-.48-.13-.12-.32-.23-.57-.34-.25-.11-.55-.23-.9-.37l-1.54-.63c-.44-.19-.85-.44-1.24-.75-.38-.31-.68-.69-.91-1.14-.23-.45-.34-.97-.34-1.57,0-.71.2-1.35.59-1.93.39-.58.93-1.04,1.62-1.39.69-.35,1.49-.52,2.38-.52.75,0,1.48.13,2.19.39.72.26,1.35.65,1.91,1.17l-1.71,2.13c-.42-.29-.83-.51-1.23-.66-.41-.15-.79-.22-1.16-.22-.39,0-.71.07-.94.21-.23.14-.35.35-.35.63,0,.19.07.35.22.48.15.13.36.25.64.36.28.11.6.24.97.39l1.5.59c.52.2.96.46,1.31.77.35.31.63.68.82,1.11.19.43.29.93.29,1.5,0,.7-.19,1.35-.56,1.95-.37.6-.92,1.09-1.64,1.45-.72.37-1.6.55-2.62.55ZM94.52,24.15c-1.06,0-2.05-.23-2.95-.69-.91-.46-1.63-1.16-2.19-2.1-.55-.94-.83-2.11-.83-3.52,0-1.04.16-1.96.48-2.76.32-.8.77-1.49,1.33-2.04.56-.56,1.2-.98,1.92-1.26.72-.28,1.46-.43,2.23-.43.82,0,1.56.16,2.21.48.65.32,1.19.7,1.62,1.16l-1.71,1.98c-.3-.27-.62-.47-.94-.6-.32-.13-.69-.2-1.11-.2-.47,0-.91.15-1.32.44-.41.29-.74.7-1,1.24-.25.53-.38,1.17-.38,1.9,0,.77.12,1.43.36,1.97.24.54.58.95,1.01,1.23.43.28.92.42,1.48.42.44,0,.84-.09,1.2-.28.35-.18.65-.4.89-.64l1.63,1.94c-.54.61-1.15,1.06-1.81,1.35-.67.29-1.38.44-2.14.44ZM98.43,23.92l3.76-12.35h3.95l3.76,12.35h-3.46l-1.41-6c-.15-.6-.3-1.24-.46-1.94-.15-.7-.3-1.36-.46-1.98h-.08c-.13.62-.27,1.28-.42,1.98-.15.7-.3,1.34-.46,1.94l-1.41,6h-3.34ZM101.13,21.3v-2.53h6.04v2.53h-6.04ZM110.86,23.92v-12.35h4.52c.9,0,1.73.13,2.49.38.76.25,1.37.68,1.83,1.27.46.6.69,1.41.69,2.45s-.23,1.82-.69,2.46c-.46.64-1.07,1.11-1.82,1.42-.75.3-1.56.46-2.42.46h-1.33v3.91h-3.27ZM114.13,17.42h1.18c.65,0,1.12-.16,1.43-.47.31-.31.47-.74.47-1.28s-.17-.95-.51-1.18c-.34-.23-.83-.34-1.46-.34h-1.1v3.27ZM122.18,23.92v-12.35h7.98v2.74h-4.71v1.94h4.03v2.74h-4.03v2.2h4.9v2.74h-8.17Z"/>
        </g>
      </g>
    </g>
  </g>
</svg>