<?xml version="1.0" encoding="UTF-8" standalone="no"?>
<!-- Created with Inkscape (http://www.inkscape.org/) -->

<svg
   width="1080"
   height="1080"
   viewBox="0 0 285.75 285.75"
   version="1.1"
   id="svg1"
   xml:space="preserve"
   sodipodi:docname="social_out_learn_Page_1_cleaned_pu.svg"
   inkscape:version="1.3.2 (1:1.3.2+202311252150+091e20ef0f)"
   xmlns:inkscape="http://www.inkscape.org/namespaces/inkscape"
   xmlns:sodipodi="http://sodipodi.sourceforge.net/DTD/sodipodi-0.dtd"
   xmlns="http://www.w3.org/2000/svg"
   xmlns:svg="http://www.w3.org/2000/svg"><sodipodi:namedview
     id="namedview1"
     pagecolor="#ffffff"
     bordercolor="#cccccc"
     borderopacity="1"
     inkscape:showpageshadow="0"
     inkscape:pageopacity="1"
     inkscape:pagecheckerboard="0"
     inkscape:deskcolor="#d1d1d1"
     inkscape:zoom="0.40648148"
     inkscape:cx="540"
     inkscape:cy="538.76993"
     inkscape:window-width="1920"
     inkscape:window-height="1138"
     inkscape:window-x="0"
     inkscape:window-y="0"
     inkscape:window-maximized="1"
     inkscape:current-layer="layer1" /><defs
     id="defs1" /><g
     id="layer1"><rect
       style="fill:#ffffff;stroke:none;stroke-width:0.05;stroke-linecap:round;stroke-linejoin:round;paint-order:markers stroke fill"
       id="rect17"
       width="285.74997"
       height="285.74997"
       x="6.4804084e-08"
       y="-2.4038543e-06" /><path
       id="path1"
       style="fill:#000000;stroke:none;stroke-width:0.05;stroke-linecap:round;stroke-linejoin:round;paint-order:markers stroke fill"
       d="m 40.346812,74.083383 -20.437085,25.549046 30.304224,5.024641 -11.309406,21.34702 21.599068,34.18435 -45.531206,11.31771 31.773951,18.36518 v 28.07595 L 39.367837,227.39272 50.2667,285.75 H 285.75 l -2e-5,-58.35728 L 285.75,-3.0154006e-7 H 61.482556 Z" /><path
       id="rect61"
       style="fill:#ffffff;fill-opacity:1;stroke:none;stroke-width:0.05;stroke-linecap:round;stroke-linejoin:round;paint-order:markers stroke fill"
       d="m 111.51031,227.64036 c -3.42765,0 -6.18722,2.75959 -6.18722,6.18723 v 15.15928 c 0,3.42763 2.75957,6.18722 6.18722,6.18722 h 97.75941 c 3.42763,0 6.18721,-2.75959 6.18721,-6.18722 v -15.15928 c 0,-3.42764 -2.75958,-6.18723 -6.18721,-6.18723 z m 9.28005,8.85271 c 1.19464,0 2.41662,0.28469 3.29903,0.84127 l -0.67904,1.6702 c -0.8824,-0.50229 -1.79176,-0.74673 -2.63343,-0.74673 -1.30325,0 -1.80557,0.4884 -1.80557,1.08572 0,1.75123 5.52525,0.54343 5.52525,4.03232 0,1.58833 -1.31724,2.94555 -4.03232,2.94555 -1.50689,0 -3.02733,-0.44807 -3.86901,-1.09968 l 0.74672,-1.65622 c 0.80094,0.58373 1.99592,0.99114 3.13625,0.99114 1.30325,0 1.83244,-0.43429 1.83244,-1.01802 0,-1.77839 -5.52524,-0.55644 -5.52524,-4.08605 0,-1.61548 1.30341,-2.9595 4.00492,-2.9595 z m 5.13146,0.16277 h 2.19935 v 5.23999 c 0,1.80555 0.78733,2.5523 2.11772,2.5523 1.34395,0 2.1177,-0.74675 2.1177,-2.5523 v -5.23999 h 2.17195 v 5.32163 c 0,2.79654 -1.60158,4.34393 -4.30309,4.34393 -2.70151,0 -4.30363,-1.54739 -4.30363,-4.34393 z m 10.77919,0 h 4.64261 c 2.37571,0 3.59773,0.99092 3.59773,2.47065 0,0.95028 -0.48917,1.68356 -1.26298,2.09082 1.05889,0.33939 1.73788,1.15353 1.73788,2.34819 0,1.64262 -1.30343,2.59312 -3.80132,2.59312 h -4.91392 z m 10.3849,0 h 1.81901 l 3.5569,5.90506 3.50263,-5.90506 h 1.80557 l 0.0264,9.50278 h -2.06344 l -0.0129,-5.70198 -2.79671,4.69739 h -0.99065 l -2.78329,-4.57492 v 5.57951 h -2.06344 z m 12.96458,0 h 2.19935 v 9.50278 h -2.19935 z m 3.38017,0 h 8.28114 v 1.79213 h -3.04063 v 7.71065 h -2.19935 v -7.71065 h -3.04116 z m 16.29098,0 h 2.17198 l 4.24883,9.50278 h -2.30788 l -0.84129,-2.03657 h -4.41213 l -0.84181,2.03657 h -2.25361 z m 7.41196,0 h 4.11344 c 2.53861,0 4.12688,1.31651 4.12688,3.44784 0,1.42542 -0.71954,2.4709 -1.95491,3.00035 l 2.13165,3.05459 h -2.36214 l -1.83295,-2.64738 h -0.10849 -1.91409 v 2.64738 h -2.19935 z m 8.77,0 h 8.28064 v 1.79213 h -3.04064 v 7.71065 h -2.19935 v -7.71065 h -3.04065 z m -57.01719,1.65622 v 2.23967 h 2.18592 c 1.07245,0 1.65623,-0.3799 1.65623,-1.12655 0,-0.74665 -0.58378,-1.11312 -1.65623,-1.11312 z m 50.44654,0.13585 v 3.31195 h 1.79213 c 1.34397,0 2.02262,-0.6245 2.02262,-1.65624 0,-1.04531 -0.67865,-1.65571 -2.02262,-1.65571 z m -8.53901,0.3664 -1.50689,3.63801 h 3.01377 z m -41.90753,3.33933 v 2.34868 h 2.56575 c 1.14033,0 1.7513,-0.35285 1.7513,-1.16737 0,-0.80095 -0.61097,-1.18131 -1.7513,-1.18131 z" /><path
       id="rect1"
       style="fill:#ffffff;stroke:none;stroke-width:0.0499998;stroke-linecap:round;stroke-linejoin:round;paint-order:markers stroke fill"
       d="M 71.33215,-9.3655301e-5 V 26.462627 c 0,0.755878 0.608651,1.364522 1.364527,1.364522 H 264.75834 c 0.75588,0 1.36451,-0.608644 1.36451,-1.364522 V -9.3655301e-5 h -6.17994 A 1.8426698,1.8426698 0 0 1 258.10125,1.8446346 h -3.6843 A 1.8426698,1.8426698 0 0 1 252.57017,-9.3655301e-5 h -7.36864 A 1.8426698,1.8426698 0 0 1 243.35987,1.8446346 h -3.68842 A 1.8426698,1.8426698 0 0 1 237.82981,-9.3655301e-5 h -7.36864 A 1.8426698,1.8426698 0 0 1 228.61849,1.8446346 h -3.68844 A 1.8426698,1.8426698 0 0 1 223.08843,-9.3655301e-5 h -7.36864 A 1.8426698,1.8426698 0 0 1 213.8771,1.8446346 h -3.68739 A 1.8426698,1.8426698 0 0 1 208.34705,-9.3655301e-5 h -7.36866 A 1.8426698,1.8426698 0 0 1 199.13676,1.8446346 h -3.68845 A 1.8426698,1.8426698 0 0 1 193.60565,-9.3655301e-5 h -7.36864 A 1.8426698,1.8426698 0 0 1 184.39126,1.8446346 h -3.68433 A 1.8426698,1.8426698 0 0 1 178.8653,-9.3655301e-5 h -7.36865 A 1.8426698,1.8426698 0 0 1 169.64987,1.8446346 h -3.68432 A 1.8426698,1.8426698 0 0 1 164.12391,-9.3655301e-5 h -7.37276 A 1.8426698,1.8426698 0 0 1 154.90952,1.8446346 H 151.2252 A 1.8426698,1.8426698 0 0 1 149.38253,-9.3655301e-5 h -7.37276 A 1.8426698,1.8426698 0 0 1 140.16812,1.8446346 h -3.6843 A 1.8426698,1.8426698 0 0 1 134.64115,-9.3655301e-5 H 127.2694 A 1.8426698,1.8426698 0 0 1 125.42674,1.8446346 h -3.68433 A 1.8426698,1.8426698 0 0 1 119.90078,-9.3655301e-5 h -7.37274 A 1.8426698,1.8426698 0 0 1 110.68536,1.8446346 h -3.68433 A 1.8426698,1.8426698 0 0 1 105.1594,-9.3655301e-5 H 97.786659 A 1.8426698,1.8426698 0 0 1 95.944998,1.8446346 H 92.260679 A 1.8426698,1.8426698 0 0 1 90.418005,-9.3655301e-5 H 83.045247 A 1.8426698,1.8426698 0 0 1 81.203619,1.8446346 H 77.5193 A 1.8426698,1.8426698 0 0 1 75.676625,-9.3655301e-5 Z" /><g
       id="text7"
       style="font-size:30.6698px;line-height:1;font-family:Montserrat;-inkscape-font-specification:Montserrat;letter-spacing:0px;fill:#ffffff;stroke:#ff0000;stroke-width:0.0499998;stroke-linecap:round;stroke-linejoin:round;paint-order:markers stroke fill"
       aria-label="ABOUTSCREENCONTEST"><path
         style="font-weight:bold;stroke:none"
         d="m 123.47961,139.31761 h 5.98061 l -9.01692,-21.49953 h -5.76593 l -9.23161,21.49953 h 5.76593 l 1.50282,-3.80305 h 9.29295 z m -9.07826,-8.09683 3.00564,-7.66745 2.9443,7.66745 z m 27.20407,-13.4027 h -10.21304 v 21.49953 h 10.61175 c 5.06052,0 8.28084,-2.30023 8.28084,-5.98061 0,-2.76028 -1.68683,-4.8765 -4.41645,-5.42855 2.26957,-0.6134 3.71105,-2.42292 3.71105,-4.66181 0,-3.31234 -3.09765,-5.42856 -7.97415,-5.42856 z m -0.3067,8.55688 h -4.29377 v -4.1711 h 4.29377 c 1.56416,-0.0307 2.51493,0.73608 2.51493,2.02421 0,1.34947 -0.95077,2.14689 -2.51493,2.14689 z m 0,8.58754 h -4.29377 v -4.50846 h 4.29377 c 1.96287,-0.0307 3.18966,0.82808 3.18966,2.17756 0,1.47215 -1.22679,2.3309 -3.18966,2.3309 z m 22.29694,-17.48179 c -6.65535,0 -11.62386,4.69248 -11.62386,11.04113 0,6.40999 4.96851,11.19448 11.62386,11.19448 6.65534,0 11.62385,-4.81516 11.62385,-11.19448 0,-6.31798 -4.96851,-11.04113 -11.62385,-11.04113 z m 0.0613,4.75382 c 3.22033,0 5.7966,2.72962 5.7966,6.31798 0,3.61904 -2.57627,6.37932 -5.7966,6.37932 -3.18965,0 -5.91927,-2.76028 -5.91927,-6.37932 0,-3.58836 2.69895,-6.31798 5.91927,-6.31798 z m 19.59797,8.21951 v -12.63596 h -5.61257 v 12.63596 c 0,5.64324 3.86439,9.26228 9.81434,9.26228 5.94994,0 9.69165,-3.61904 9.69165,-9.26228 v -12.63596 h -5.61257 v 12.63596 c 0,2.79095 -1.65617,4.47779 -4.04841,4.47779 -2.42292,0 -4.23244,-1.71751 -4.23244,-4.47779 z m 15.85625,-12.63596 v 4.63114 h 6.37932 v 16.86839 h 5.61257 v -16.86839 h 6.44066 v -4.63114 z"
         id="path2" /><path
         style="font-weight:bold;stroke:none"
         d="m 122.49817,154.95921 2.11622,-4.47779 c -2.2389,-1.44148 -5.42856,-2.42292 -8.58754,-2.42292 -5.1832,0 -8.58755,2.57627 -8.58755,6.62468 0,7.72879 11.31716,5.45923 11.31716,9.23161 0,1.19612 -1.04278,1.80952 -2.69894,1.80952 -2.2389,0 -5.58191,-1.3188 -7.79013,-3.28167 l -2.17756,4.38578 c 2.57626,2.14689 6.31798,3.49636 9.90635,3.49636 4.78448,0 8.64888,-2.30024 8.64888,-6.71669 0,-7.85147 -11.31716,-5.76592 -11.31716,-9.4463 0,-1.0121 0.88943,-1.50282 2.2389,-1.50282 1.77885,0 4.66181,0.98144 6.93137,2.30024 z m 20.54877,0.82808 3.25099,-3.92573 c -2.14688,-2.26957 -5.48989,-3.71105 -8.67955,-3.71105 -6.56334,0 -11.50117,4.72315 -11.50117,11.04113 0,6.37932 4.81515,11.19448 11.28648,11.19448 3.18966,0 6.62468,-1.59483 8.92491,-4.01774 l -3.28166,-3.52703 c -1.50282,1.53349 -3.5577,2.51492 -5.33655,2.51492 -3.31234,0 -5.82726,-2.69894 -5.82726,-6.22597 0,-3.55769 2.51492,-6.22597 5.82726,-6.22597 1.87086,0 3.92573,1.10412 5.33655,2.88296 z m 24.93453,14.20012 -4.4778,-7.02338 c 2.48426,-1.28813 3.83373,-3.68038 3.83373,-6.93138 0,-4.78449 -3.251,-7.54477 -8.95558,-7.54477 h -9.66099 v 21.49953 h 5.61257 v -5.94994 h 4.04842 0.12268 l 3.12832,5.94994 z M 154.3334,152.96567 h 4.07909 c 2.26956,0 3.58836,1.13479 3.58836,3.251 0,2.17756 -1.3188,3.34301 -3.58836,3.34301 h -4.07909 z m 16.59233,-4.47779 v 21.49953 h 17.2671 v -4.47779 h -11.65452 v -4.04841 l 10.24371,-0.0307 v -4.44712 h -10.24371 v -4.01775 h 11.34782 v -4.47779 z m 20.7021,0 v 21.49953 h 17.2671 v -4.47779 H 197.2404 v -4.04841 l 10.24371,-0.0307 v -4.44712 H 197.2404 v -4.01775 h 11.34783 v -4.47779 z m 35.39292,0 0.0307,12.94266 -9.78367,-12.94266 h -4.93783 v 21.49953 h 5.24453 v -12.85064 l 9.753,12.85064 h 4.90717 v -21.49953 z"
         id="path3" /><path
         style="font-weight:bold;stroke:none"
         d="m 123.23425,186.45709 3.251,-3.92573 c -2.14689,-2.26957 -5.4899,-3.71105 -8.67956,-3.71105 -6.56333,0 -11.50117,4.72315 -11.50117,11.04113 0,6.37932 4.81516,11.19448 11.28649,11.19448 3.18965,0 6.62467,-1.59483 8.92491,-4.01775 l -3.28167,-3.52702 c -1.50282,1.53349 -3.5577,2.51492 -5.33655,2.51492 -3.31234,0 -5.82726,-2.69894 -5.82726,-6.22597 0,-3.55769 2.51492,-6.22597 5.82726,-6.22597 1.87086,0 3.92574,1.10412 5.33655,2.88296 z m 15.54954,-7.63678 c -6.65535,0 -11.62386,4.69248 -11.62386,11.04113 0,6.40999 4.96851,11.19448 11.62386,11.19448 6.65534,0 11.62385,-4.81516 11.62385,-11.19448 0,-6.31798 -4.96851,-11.04113 -11.62385,-11.04113 z m 0.0613,4.75382 c 3.22033,0 5.79659,2.72961 5.79659,6.31798 0,3.61904 -2.57626,6.37932 -5.79659,6.37932 -3.18966,0 -5.91927,-2.76028 -5.91927,-6.37932 0,-3.58837 2.69894,-6.31798 5.91927,-6.31798 z m 29.04426,-4.41645 0.0307,12.94266 -9.78366,-12.94266 h -4.93784 v 21.49953 h 5.24454 v -12.85064 l 9.75299,12.85064 h 4.90717 v -21.49953 z m 7.54476,0 v 4.63114 h 6.37932 v 16.86839 h 5.61257 v -16.86839 h 6.44066 v -4.63114 z m 20.70206,0 v 21.49953 h 17.2671 v -4.47779 h -11.65452 v -4.04841 l 10.24371,-0.0307 v -4.44712 h -10.24371 v -4.01775 h 11.34782 v -4.47779 z m 35.5156,6.47133 2.11622,-4.47779 c -2.2389,-1.44148 -5.42855,-2.42292 -8.58754,-2.42292 -5.1832,0 -8.58755,2.57627 -8.58755,6.62468 0,7.72879 11.31716,5.45923 11.31716,9.23161 0,1.19612 -1.04277,1.80952 -2.69894,1.80952 -2.2389,0 -5.58191,-1.3188 -7.79013,-3.28167 l -2.17756,4.38578 c 2.57626,2.14689 6.31798,3.49636 9.90635,3.49636 4.78449,0 8.64888,-2.30024 8.64888,-6.71669 0,-7.85147 -11.31716,-5.76592 -11.31716,-9.4463 0,-1.0121 0.88943,-1.50282 2.2389,-1.50282 1.77885,0 4.66181,0.98144 6.93137,2.30024 z m 3.12833,-6.47133 v 4.63114 h 6.37932 v 16.86839 h 5.61257 v -16.86839 h 6.44066 v -4.63114 z"
         id="path4" /></g><path
       style="font-weight:bold;font-size:19.2666px;line-height:1;font-family:Montserrat;-inkscape-font-specification:Montserrat;letter-spacing:0px;fill:#ffffff;stroke-width:0.0499998;stroke-linecap:round;stroke-linejoin:round;paint-order:markers stroke fill"
       d="m 104.89923,84.705555 v 2.88999 h 2.60099 v 10.615896 h 3.52579 V 84.705555 Z m 10.42322,10.326897 c -0.96333,0 -1.63766,0.674331 -1.63766,1.656928 0,0.982596 0.67433,1.676194 1.63766,1.676194 0.96333,0 1.65693,-0.693598 1.65693,-1.676194 0,-0.982597 -0.6936,-1.656928 -1.65693,-1.656928 z m 13.4288,-2.408325 h -1.73399 v -2.870723 h -3.23679 v 2.870723 h -2.52393 l 3.60286,-7.918572 h -3.35239 l -3.83405,8.207571 v 2.389058 h 6.10751 v 2.909257 h 3.23679 v -2.909257 h 1.73399 z"
       id="text8"
       aria-label="1.4" /><rect
       style="fill:#ffffff;stroke:none;stroke-width:0.0499998;stroke-linecap:round;stroke-linejoin:round;paint-order:markers stroke fill"
       id="rect8"
       width="155.45731"
       height="2.7288136"
       x="105.37283"
       y="106.55871"
       rx="0.68568724"
       ry="0.68568724" /><path
       style="font-size:18.679px;line-height:1;font-family:'Linux Libertine Display O';-inkscape-font-specification:'Linux Libertine Display O';letter-spacing:0px;stroke-width:0.0499998;stroke-linecap:round;stroke-linejoin:round;paint-order:markers stroke fill"
       d="m 109.97248,13.905985 c -0.41094,0 -0.54169,-0.149432 -0.46698,-0.336222 l 1.9613,-4.8378612 h 0.056 l 1.79319,5.1740832 z m -2.11073,3.903911 1.12074,-2.895245 c 0.0934,-0.242827 0.20547,-0.410938 0.65376,-0.410938 h 3.90392 l 1.17677,3.436936 c 0.26151,0.765839 -0.48565,0.765839 -1.38224,0.821876 -0.11208,0.112074 -0.11208,0.317543 0,0.429617 0.69112,-0.01868 1.71846,-0.0934 2.44695,-0.0934 0.76583,0 1.56903,0.07472 2.26015,0.0934 0.11208,-0.112074 0.11208,-0.317543 0,-0.429617 -0.72848,-0.05604 -1.34488,-0.130753 -1.68111,-1.083382 L 112.45678,6.8079647 c -0.28018,0.168111 -0.72848,0.37358 -0.9713,0.37358 l -4.33353,10.1987343 c -0.48566,1.139419 -1.04603,1.326209 -1.8679,1.382246 -0.11208,0.112074 -0.11208,0.317543 0,0.429617 0.69112,-0.01868 1.12074,-0.0934 1.84922,-0.0934 0.76584,0 1.32621,0.07472 2.01733,0.0934 0.11207,-0.112074 0.11207,-0.317543 0,-0.429617 -0.7098,-0.03736 -1.58771,-0.168111 -1.28885,-0.952629 z m 13.41151,-5.360873 c 0.46698,-0.410938 0.98999,-0.579049 1.513,-0.579049 0.52301,0 1.08338,0.317543 1.45696,0.877913 0.41094,0.597728 0.63509,1.475641 0.63509,2.353554 0,2.036011 -0.93395,3.754479 -2.63374,3.754479 -0.56037,0 -0.91527,-0.392259 -1.27017,-0.840555 -0.0374,-0.93395 -0.0374,-4.819182 -0.0374,-4.819182 0,-0.37358 0.11207,-0.541691 0.33622,-0.74716 z m -0.13075,-0.37358 c -0.11208,0.09339 -0.20547,0.09339 -0.20547,-0.07472 0,0 0,-3.1567512 0.0374,-4.0907013 0.0374,-1.158098 0.056,-1.68111 0.056,-1.68111 0,-0.130753 -0.056,-0.168111 -0.22414,-0.168111 -0.4483,0.18679 -1.69979,0.410938 -2.4096,0.466975 -0.0374,0.149432 -0.0187,0.242827 0.0934,0.354901 0.93395,0.056037 1.08338,0.18679 1.13942,1.4569621 0.0374,0.93395 0.0187,8.5549822 -0.0187,9.4889322 -0.0374,0.691123 -0.18679,1.027345 -0.24283,1.270172 0.0934,0.149432 0.0747,0.205469 0.28019,0.205469 0.11207,-0.0934 0.44829,-0.336222 0.57905,-0.504333 0.18679,-0.205469 0.29886,-0.224148 0.48565,-0.05604 0.41094,0.336222 1.00867,0.541691 1.64375,0.541691 1.81187,0 3.94127,-1.662431 3.94127,-4.501639 0,-2.166764 -1.60639,-3.511652 -3.15675,-3.511652 -0.76584,0 -1.43828,0.298864 -1.99865,0.803197 z m 6.66836,3.380899 c 0,1.811863 1.21414,3.829195 3.7358,3.829195 1.13942,0 1.99866,-0.410938 2.61506,-1.008666 0.8032,-0.784518 1.1581,-1.905258 1.1581,-2.98864 0,-1.849221 -1.00866,-4.015985 -3.7358,-4.015985 -1.17678,0 -2.1294,0.485654 -2.78317,1.251493 -0.65376,0.765839 -0.98999,1.811863 -0.98999,2.932603 z m 3.51166,-3.754479 c 1.53167,0 2.5777,1.587715 2.5777,4.146738 0,2.24148 -1.2515,3.007319 -2.09205,3.007319 -1.84922,0 -2.5777,-2.446949 -2.5777,-3.810516 0,-1.550357 0.48565,-3.343541 2.09205,-3.343541 z m 8.42419,7.583674 c 0.69113,0 1.71847,-0.37358 2.59639,-1.083382 0.0934,-0.07472 0.2615,-0.112074 0.2615,0.01868 0,0.410938 0.20547,1.064703 0.20547,1.064703 0.13075,0.05604 0.20547,0.03736 0.33622,0 0.39226,-0.317543 0.89659,-0.597728 1.97998,-0.728481 0.11207,-0.112074 0.11207,-0.168111 0,-0.280185 -1.13942,-0.0934 -1.28885,-0.429617 -1.30753,-1.30753 -0.0374,-0.93395 -0.0374,-2.913924 0,-3.847874 0.0187,-0.541691 0.0747,-1.643752 0.0747,-1.643752 0,-0.05604 -0.0374,-0.112074 -0.13075,-0.112074 -0.0934,0.01868 -0.37358,0.03736 -0.63509,0.03736 -0.57905,0 -1.04602,-0.01868 -1.69979,-0.03736 -0.11207,0.112074 -0.11207,0.317543 0,0.429617 0.87792,0.05604 1.04603,0.280185 1.10207,1.438283 0.0374,0.93395 0.0374,2.913924 0,3.847874 -0.0187,0.336222 -0.0374,0.280185 -0.28019,0.504333 -0.65376,0.579049 -1.53168,1.046024 -1.97997,1.046024 -1.12074,0 -1.28885,-0.429617 -1.34489,-2.017332 -0.0374,-0.93395 -0.0374,-2.559023 0,-3.492973 0.0187,-0.541691 0.0747,-1.643752 0.0747,-1.643752 0,-0.05604 -0.056,-0.112074 -0.14943,-0.112074 -0.0934,0.01868 -0.3549,0.03736 -0.6164,0.03736 -0.57905,0 -1.04603,-0.01868 -1.69979,-0.03736 -0.11208,0.112074 -0.11208,0.317543 0,0.429617 0.85923,0.07472 1.04602,0.242827 1.10206,1.400925 0.0374,0.93395 0.0374,2.727134 0,3.661084 -0.056,1.232814 0.3549,2.42827 2.11072,2.42827 z m 6.66841,-7.826501 c -0.24283,0 -0.31754,0.112074 -0.31754,0.261506 v 0.168111 c 0,0.0934 0.0187,0.112074 0.0934,0.112074 h 1.04603 c 0,1.774505 -0.0934,4.389565 -0.0934,5.510305 0,1.270172 0.42962,1.774505 1.25149,1.774505 0.82188,0 1.71847,-0.392259 2.40959,-1.176777 -0.0374,-0.18679 -0.0747,-0.224148 -0.18679,-0.261506 -0.46697,0.354901 -1.12074,0.635086 -1.58771,0.635086 -0.48565,0 -0.56037,-0.541691 -0.59773,-1.643752 -0.0374,-0.93395 0.0187,-3.17543 0.0934,-4.837861 h 1.84922 c 0.18679,0 0.42961,-0.05604 0.42961,-0.224148 V 11.57111 c 0,-0.07472 -0.0374,-0.112074 -0.13075,-0.112074 h -2.14808 l 0.0187,-1.064703 c 0.0187,-1.1580982 0.0747,-1.8679002 0.0747,-1.8679002 0,-0.112074 -0.056,-0.168111 -0.13075,-0.168111 -0.13075,0 -0.41094,0.205469 -0.69112,0.317543 -0.29887,0.130753 -0.61641,0.149432 -0.61641,0.336222 0,0.205469 0.056,0.466975 0.056,2.4469492 z m 12.98185,5.6037 c -0.0374,-1.531678 -0.056,-2.390912 -0.056,-3.941269 0,-1.550357 0,-2.465628 0.056,-4.0346642 0.0374,-1.5503571 0.29887,-1.6063941 1.6064,-1.6997891 0.11207,-0.112074 0.11207,-0.317543 0,-0.429617 -0.69113,0.037358 -1.84922,0.093395 -2.40959,0.093395 -0.56037,0 -1.83055,-0.056037 -2.42827,-0.093395 -0.11208,0.112074 -0.11208,0.317543 0,0.429617 1.30753,0.112074 1.60639,0.149432 1.64375,1.6997891 0.0374,1.5503572 0.056,2.4656282 0.056,4.0159852 0,1.550357 -0.0187,2.409591 -0.056,3.959948 -0.0374,1.550357 -0.33622,1.643752 -1.64375,1.699789 -0.11208,0.112074 -0.11208,0.317543 0,0.429617 0.72848,-0.03736 1.8679,-0.0934 2.42827,-0.0934 0.56037,0 1.64375,0.03736 2.40959,0.0934 0.11207,-0.112074 0.11207,-0.317543 0,-0.429617 -1.30753,-0.05604 -1.56904,-0.149432 -1.6064,-1.699789 z m 5.34219,-4.333528 c -0.056,0.07472 -0.16811,0.242827 -0.16811,0 0,-0.541691 0.0934,-1.363567 0.0934,-1.363567 0,-0.09339 -0.0747,-0.130753 -0.22414,-0.130753 -0.50434,0.18679 -1.12074,0.336222 -2.35356,0.504333 -0.0374,0.112074 0,0.205469 0.0374,0.317543 0.95263,0.0934 1.12074,0.18679 1.1581,1.214135 0.0187,0.971308 0.0187,2.969961 0,3.885232 -0.0374,1.456962 -0.18679,1.512999 -1.2515,1.606394 -0.11207,0.112074 -0.11207,0.317543 0,0.429617 0.72849,-0.01868 1.1581,-0.0934 1.92394,-0.0934 0.69112,0 0.95263,0.07472 1.69979,0.0934 0.11207,-0.112074 0.11207,-0.317543 0,-0.429617 -0.91527,-0.0934 -1.02734,-0.149432 -1.0647,-1.606394 -0.0374,-0.859234 -0.056,-2.446949 0,-3.343541 0.0187,-0.37358 0.14943,-0.579049 0.29886,-0.74716 0.67245,-0.653765 1.66243,-1.046024 2.35356,-1.046024 0.3549,0 0.74716,0.224148 0.95262,0.635086 0.18679,0.354901 0.14944,0.840555 0.18679,1.382246 0.0374,0.93395 0.0374,2.185443 0,3.119393 -0.0747,1.456962 -0.16811,1.512999 -1.10206,1.606394 -0.0934,0.112074 -0.0934,0.317543 0,0.429617 0.74716,-0.01868 1.08339,-0.0934 1.79319,-0.0934 0.72848,0 1.0647,0.07472 1.83054,0.0934 0.0934,-0.112074 0.0934,-0.317543 0,-0.429617 -0.98999,-0.0934 -1.13942,-0.149432 -1.19546,-1.606394 -0.0374,-0.915271 -0.0374,-1.942616 0,-2.876566 0,-0.280185 0.0187,-0.541691 0.0187,-0.803197 0,-0.635086 -0.0747,-1.176777 -0.3549,-1.587715 -0.29886,-0.392259 -0.89659,-0.616407 -1.513,-0.616407 -0.87791,0 -2.03601,0.242827 -3.11939,1.456962 z m 8.05064,4.445602 c -0.0374,1.475641 -0.20547,1.531678 -1.28885,1.587715 -0.13076,0.130753 -0.11208,0.336222 0,0.429617 0.74716,-0.01868 1.19545,-0.0934 1.96129,-0.0934 0.76584,0 1.21414,0.07472 1.97998,0.0934 0.0934,-0.0934 0.11207,-0.298864 0,-0.429617 -1.08339,-0.05604 -1.2515,-0.112074 -1.28885,-1.587715 -0.0187,-0.354901 -0.0374,-1.008666 -0.0374,-1.811863 0.89659,0.01868 1.19545,0.168111 1.60639,0.691123 l 1.28885,1.737147 c 0.50434,0.691123 0.61641,1.046024 0.69113,1.30753 0.0187,0.05604 0.0187,0.0934 0.0747,0.0934 0.28019,-0.03736 0.72848,-0.0934 0.98999,-0.0934 0.28018,0 1.12074,0.05604 1.47564,0.0934 0.11207,-0.112074 0.11207,-0.317543 0,-0.429617 -0.59773,-0.07472 -1.0647,-0.37358 -1.53168,-0.971308 l -2.35355,-2.951282 c -0.056,-0.07472 -0.13076,-0.149432 -0.13076,-0.242827 0,-0.07472 0,-0.112074 0.0747,-0.18679 l 1.56904,-1.606394 c 0.54169,-0.579049 1.1581,-0.93395 1.8679,-1.008666 0.11207,-0.112074 0.11207,-0.317543 0,-0.429617 -0.65377,0.01868 -0.91527,0.09339 -1.55036,0.09339 -0.67244,0 -1.10206,-0.07472 -1.75583,-0.09339 -0.11207,0.112074 -0.11207,0.317543 0,0.429617 0.98999,0.07472 0.76584,0.915271 0.59773,1.12074 -0.41094,0.523012 -0.97131,1.12074 -1.4196,1.456962 -0.41094,0.298864 -1.1581,0.523012 -1.49432,0.56037 -0.0187,-0.597728 -0.0187,-1.288851 -0.0187,-1.979974 0,-2.05469 0.0374,-4.2214542 0.056,-5.0433303 0.0187,-1.158098 0.0747,-1.68111 0.0747,-1.68111 0,-0.130753 -0.0747,-0.168111 -0.24283,-0.168111 -0.44829,0.18679 -1.68111,0.410938 -2.39091,0.466975 -0.0374,0.149432 -0.056,0.242827 0.056,0.354901 0.93395,0.056037 1.0647,0.149432 1.13942,1.4569621 0.0187,0.728481 0.0374,2.4095912 0.0374,4.1280592 0,1.942616 -0.0187,3.941269 -0.0374,4.707108 z m 8.49894,-0.429617 c 0.0747,0.877913 0.11208,1.606394 0.11208,2.353554 0.18679,-0.03736 0.3549,-0.05604 0.44829,-0.05604 0.13076,0 0.22415,0 0.3549,0.03736 0.48566,0.130753 0.97131,0.205469 1.62508,0.205469 0.98998,0 2.83921,-0.504333 2.83921,-2.260159 0,-1.214135 -0.87792,-1.811863 -2.09205,-2.278838 -1.06471,-0.410938 -1.84922,-0.765839 -1.84922,-1.737147 0,-0.728481 0.59772,-1.326209 1.32621,-1.326209 0.65376,0 1.60639,0.242827 1.83054,1.755826 0.11207,0.0934 0.28018,0.0934 0.39226,-0.01868 0.056,-0.635086 0.0747,-1.214135 0.0934,-1.793184 -0.56037,-0.0934 -1.38224,-0.354901 -2.31619,-0.354901 -1.41961,0 -2.52167,0.765839 -2.52167,1.998653 0,1.30753 0.69112,1.830542 1.9613,2.372233 1.45696,0.635086 1.8679,1.027345 1.8679,1.793184 0,0.877913 -0.91528,1.438283 -1.56904,1.438283 -0.69112,0 -1.17678,-0.298864 -1.36357,-0.485654 -0.42961,-0.410938 -0.67244,-1.214135 -0.78452,-1.662431 -0.11207,-0.112074 -0.24282,-0.0934 -0.3549,0.01868 z m 13.39282,0.728481 c -0.0747,-0.168111 -0.11208,-0.168111 -0.28019,-0.18679 -0.59773,0.784518 -1.55035,1.30753 -2.31619,1.30753 -1.40093,0 -2.59639,-1.344888 -2.59639,-3.586368 0,-1.961295 1.06471,-3.306183 2.24148,-3.306183 1.04603,0 1.32621,0.803197 1.40093,1.419604 0.056,0.504333 0.29886,0.635086 0.67244,0.635086 0.37358,0 0.85924,-0.224148 0.85924,-0.784518 0,-0.971308 -1.12074,-1.699789 -2.83921,-1.699789 -1.75583,0 -3.75448,1.606394 -3.75448,4.128059 0,2.297517 1.38225,3.885232 3.62373,3.885232 1.0647,0 2.09205,-0.354901 2.98864,-1.811863 z m 6.03329,-2.334875 -0.0934,2.185443 c -0.0187,0.224148 -0.0934,0.336222 -0.24283,0.448296 -0.46698,0.37358 -1.10206,0.952629 -1.6064,0.952629 -0.89659,0 -1.38224,-0.784518 -1.38224,-1.344888 0,-0.691123 0.44829,-1.531678 1.79318,-1.8679 z m -0.0934,3.100714 c 0.11207,0.37358 0.39225,1.046024 1.34488,1.046024 0.87792,0 1.513,-0.709802 1.513,-0.803197 0,-0.130753 -0.18679,-0.242827 -0.2615,-0.242827 -0.11208,0 -0.16811,0.298864 -0.54169,0.298864 -0.69113,0 -0.78452,-0.56037 -0.74716,-1.587715 l 0.0934,-2.652418 c 0.0747,-2.484307 -1.23281,-3.025998 -2.54034,-3.025998 -1.45697,0 -3.026,0.93395 -3.026,1.886579 0,0.429617 0.29886,0.728481 0.7098,0.728481 0.52301,0 0.82188,-0.466975 0.82188,-0.691123 0,-0.130753 -0.0187,-0.242827 -0.056,-0.317543 -0.0187,-0.05604 -0.0374,-0.168111 -0.0374,-0.354901 0,-0.56037 0.76584,-0.840555 1.43828,-0.840555 0.59773,0 1.40093,0.485654 1.40093,2.502986 0,0.130753 -0.0374,0.37358 -0.0934,0.392259 l -1.68111,0.37358 c -1.73714,0.392259 -2.9326,1.288851 -2.9326,2.502986 0,1.363567 0.97131,1.830542 2.2228,1.830542 0.82188,0 1.19546,-0.168111 1.97998,-0.765839 l 0.3549,-0.280185 z m 6.22008,-5.267478 c 0.50433,-0.616407 1.08338,-1.064703 1.75582,-1.064703 1.13942,0 2.18545,1.102061 2.18545,3.306183 0,1.456962 -0.63509,3.642405 -2.63374,3.642405 -0.31755,0 -0.85924,-0.0934 -1.17678,-0.37358 -0.3549,-0.317543 -0.4483,-0.616407 -0.4483,-1.251493 0,0 0,-2.353554 0.0374,-3.287504 0,-0.37358 0.056,-0.709802 0.28019,-0.971308 z m -0.14944,-0.429617 c -0.056,0.07472 -0.16811,0.07472 -0.16811,-0.05604 0,-0.635086 0.056,-1.139419 0.056,-1.139419 0,-0.07472 -0.0747,-0.112074 -0.22415,-0.112074 -0.50433,0.18679 -1.0647,0.336222 -2.29752,0.504333 -0.0374,0.112074 0,0.205469 0.0374,0.317543 0.95263,0.0934 1.10206,0.205469 1.1581,1.214135 0.0374,0.93395 0.0374,7.4716 0,8.40555 -0.0747,1.475641 -0.18679,1.569036 -1.27017,1.625073 -0.11208,0.112074 -0.11208,0.280185 0,0.392259 0.74716,-0.01868 1.1581,-0.0934 1.92394,-0.0934 0.82187,0 1.34488,0.07472 2.11072,0.0934 0.11208,-0.112074 0.11208,-0.280185 0,-0.392259 -1.27017,-0.07472 -1.40092,-0.149432 -1.45696,-1.625073 -0.0374,-0.93395 -0.0374,-2.540344 -0.0374,-2.540344 0,-0.224148 0.0934,-0.205469 0.28019,-0.130753 0.42961,0.168111 0.89659,0.280185 1.45696,0.280185 0.98999,0 1.88658,-0.317543 2.61506,-1.008666 0.84056,-0.821876 1.32621,-2.110727 1.32621,-3.54901 0,-2.073369 -1.34489,-3.455615 -3.15675,-3.455615 -1.08338,0 -1.73715,0.466975 -2.35356,1.270172 z m 8.48025,1.718468 c 0.33622,-2.017332 1.513,-2.559023 2.18544,-2.559023 0.85924,0 1.68111,0.728481 1.68111,2.222801 0,0.168111 -0.0747,0.242827 -0.2615,0.242827 z m 4.93126,3.17543 c -0.65377,0.672444 -1.27018,1.158098 -2.29752,1.158098 -0.63509,0 -1.56904,-0.37358 -2.12941,-1.288851 -0.3549,-0.579049 -0.56037,-1.475641 -0.56037,-2.502986 l 5.00597,-0.07472 c 0.20547,0 0.33623,-0.130753 0.33623,-0.317543 0,-1.49432 -0.61641,-3.138072 -3.10072,-3.138072 -1.69979,0 -3.66108,1.512999 -3.66108,4.221454 0,0.989987 0.2615,1.979974 0.84055,2.652418 0.59773,0.709802 1.53168,1.139419 2.82053,1.139419 1.34489,0 2.40959,-0.616407 3.1194,-1.550357 -0.056,-0.18679 -0.16812,-0.280185 -0.37358,-0.298864 z"
       id="text9"
       transform="scale(1.0011701,0.99883129)"
       aria-label="About Inkscape" /><g
       id="g10"
       transform="matrix(0.52647806,0,0,0.52647806,-215.03161,1.9467395)"
       style="stroke-width:0.502554"><path
         d="M 572.92572,9.6741777 560.994,21.883892 c -4.03142,4.992414 2.74356,4.411551 5.64789,5.849501 1.04183,1.064923 -3.99322,1.850951 -2.9514,2.916765 1.04183,1.064914 6.29981,2.051678 7.34342,3.116592 1.04182,1.064923 -2.13251,2.194679 -1.09068,3.259602 1.04182,1.064914 3.45144,0.05594 3.90263,2.514411 0.32152,1.75681 4.34228,0.754948 6.30869,-0.683886 1.04183,-1.065814 -1.99306,-0.965448 -0.95123,-2.030369 2.5908,-2.649415 5.00307,-0.962774 5.88948,-3.617524 0.43787,-1.311831 -3.81382,-2.02237 -2.77022,-3.087293 2.99759,-1.75059 13.35812,-2.890111 8.44209,-7.806146 L 578.39686,9.6741777 c -1.51256,-1.45216 -4.03675,-1.46815 -5.47114,0 z m 13.70539,23.5348063 c 0,0.605729 4.46307,1.002745 4.46307,-0.143001 -0.63593,-1.840288 -3.9355,-1.715949 -4.46307,0.143001 z m -20.10469,3.218734 c 1.05694,0.91393 2.6894,-0.227372 3.17878,-1.502785 -1.02407,-1.360684 -4.85742,0.04886 -3.17878,1.502785 z m 19.54514,-1.974409 c -1.36245,1.222125 0.15277,2.462021 1.49569,1.67243 0.29931,-0.303757 -0.008,-1.368671 -1.49569,-1.67243 z"
         id="path9"
         style="fill:#000000;fill-opacity:1;stroke-width:0.0560484" /><path
         d="m 577.67566,10.530375 4.72064,4.794359 c 0.44764,0.457406 0.44142,1.343802 0.19096,1.598708 l -2.34389,-1.874931 -0.46096,2.776426 -1.95842,-1.033826 -3.13614,1.981508 -1.03828,-4.177078 -1.68486,2.914983 h -2.5757 c -1.04982,0 -1.17327,-1.332257 -0.21938,-2.286157 1.66621,-1.798545 3.57845,-3.631733 4.61761,-4.693992 1.04449,-1.0675793 2.86436,-1.0373883 3.88842,0 z"
         id="path10"
         style="fill:#ffffff;stroke-width:0.0560484" /></g></g></svg>
